Coordinates
version=1
nRows=10
nColumns=63
inDegrees=yes

Units are S.I. units (second, meters, Newtons, ...)
If the header above contains a line with 'inDegrees', this indicates whether rotational values are in degrees (yes) or radians (no).

endheader
time	pelvis_tilt	pelvis_list	pelvis_rotation	pelvis_tx	pelvis_ty	pelvis_tz	hip_flexion_r	hip_adduction_r	hip_rotation_r	knee_angle_r	knee_angle_r_beta	ankle_angle_r	subtalar_angle_r	mtp_angle_r	hip_flexion_l	hip_adduction_l	hip_rotation_l	knee_angle_l	knee_angle_l_beta	ankle_angle_l	subtalar_angle_l	mtp_angle_l	L5_S1_Flex_Ext	L5_S1_Lat_Bending	L5_S1_axial_rotation	L4_L5_Flex_Ext	L4_L5_Lat_Bending	L4_L5_axial_rotation	L3_L4_Flex_Ext	L3_L4_Lat_Bending	L3_L4_axial_rotation	L2_L3_Flex_Ext	L2_L3_Lat_Bending	L2_L3_axial_rotation	L1_L2_Flex_Ext	L1_L2_Lat_Bending	L1_L2_axial_rotation	L1_T12_Flex_Ext	L1_T12_Lat_Bending	L1_T12_axial_rotation	Abs_r3	Abs_r2	Abs_r1	Abs_t1	Abs_t2	neck_flexion	neck_bending	neck_rotation	arm_flex_r	arm_add_r	arm_rot_r	elbow_flex_r	pro_sup_r	wrist_flex_r	wrist_dev_r	arm_flex_l	arm_add_l	arm_rot_l	elbow_flex_l	pro_sup_l	wrist_flex_l	wrist_dev_l
7.358491	-0.274766	-9.918526	86.206640	0.236291	0.877019	0.651776	4.009394	1.138982	-2.368050	8.385654	0.146357	22.407064	-4.607341	0.000000	-0.291816	-2.154404	-1.152435	0.475313	0.008296	25.194210	5.660399	0.000000	0.132207	0.301308	-0.278541	0.245521	0.400740	-0.295950	0.217203	0.732601	-0.295950	0.151099	0.732601	-0.243724	0.122767	0.614428	-0.226315	0.075543	0.466726	-0.208906	0.944341	3.408458	-1.549163	0.000000	0.000000	28.035616	-2.036516	-3.614340	-6.400405	-13.307665	11.583914	106.906125	82.759865	-6.689463	11.626796	69.530152	3.514012	178.221187	-6.330227	-6.891340	9.403082	-16.259871
7.377358	-0.259664	-10.056380	85.214085	0.237057	0.876774	0.652069	4.265462	1.171995	-1.760163	8.511192	0.148548	22.450944	-4.181691	0.000000	-0.249831	-2.163983	-1.790162	0.461448	0.008054	25.237975	5.398073	0.000000	0.134921	0.328968	-0.020576	0.250562	0.437527	-0.021862	0.221662	0.799853	-0.021862	0.154201	0.799853	-0.018004	0.125288	0.670831	-0.016718	0.077094	0.509571	-0.015432	0.963727	3.721352	-0.114439	0.000000	0.000000	28.057063	-2.545253	-4.276185	-8.117904	-13.658588	11.541399	109.576360	84.708767	-3.733140	9.176024	69.015163	4.246016	182.184664	-4.655278	-6.366565	11.168335	-18.194737
7.396226	-0.251616	-10.158370	84.464713	0.237700	0.876593	0.652158	4.442674	1.200372	-1.329611	8.592314	0.149964	22.524070	-3.768394	0.000000	-0.221699	-2.180166	-2.276006	0.450878	0.007869	25.293535	5.256163	0.000000	0.138124	0.351247	0.185590	0.256510	0.467159	0.197189	0.226924	0.854023	0.197189	0.157862	0.854023	0.162391	0.128262	0.716264	0.150791	0.078924	0.544082	0.139192	0.986606	3.973381	1.032193	0.000000	0.000000	28.015760	-2.877929	-4.844901	-9.201644	-13.978833	11.636842	112.049823	86.407613	0.615996	7.410447	68.112560	4.621573	181.160138	-1.705230	-2.736103	11.673775	-19.188444
7.415094	-0.281046	-10.236003	83.935619	0.238326	0.876434	0.652002	4.542719	1.195332	-1.020178	8.617097	0.150397	22.647123	-3.394267	0.000000	-0.205062	-2.170943	-2.640446	0.440908	0.007695	25.349289	5.217974	0.000000	0.142849	0.363662	0.320417	0.265284	0.483670	0.340443	0.234686	0.884208	0.340443	0.163262	0.884208	0.280364	0.132649	0.741580	0.260338	0.081624	0.563312	0.240312	1.020354	4.113817	1.782061	0.000000	0.000000	27.967325	-3.076618	-5.261340	-9.565183	-14.120258	12.021804	114.220156	87.648245	6.199242	6.399201	66.834229	4.443678	174.956306	2.625338	3.042828	10.691600	-19.430317
7.433962	-0.326396	-10.288374	83.674350	0.238903	0.876306	0.651581	4.560270	1.181764	-0.806965	8.583138	0.149804	22.775136	-3.200038	0.000000	-0.197161	-2.159430	-2.827868	0.431646	0.007534	25.410516	5.275642	0.000000	0.148603	0.368694	0.365080	0.275970	0.490363	0.387897	0.244139	0.896442	0.387897	0.169838	0.896442	0.319445	0.137992	0.751840	0.296627	0.084911	0.571106	0.273810	1.061453	4.170736	2.030465	0.000000	0.000000	27.938534	-3.105295	-5.449294	-9.249219	-14.036150	12.714966	116.052735	88.600230	12.783913	5.998479	65.116530	3.635261	163.442628	8.408149	11.141438	8.489539	-18.864966
7.452830	-0.413409	-10.307329	83.664312	0.239399	0.876254	0.650906	4.486474	1.127211	-0.703100	8.487985	0.148143	22.875926	-3.172051	0.000000	-0.206865	-2.115150	-2.849102	0.422293	0.007370	25.461851	5.430614	0.000000	0.154861	0.363140	0.332692	0.287593	0.482976	0.353486	0.254422	0.882938	0.353486	0.176991	0.882938	0.291106	0.143804	0.740515	0.270312	0.088488	0.562504	0.249519	1.106159	4.107912	1.850334	0.000000	0.000000	27.916456	-3.064308	-5.613746	-8.426306	-13.689385	13.617490	117.625778	89.350074	20.141355	6.463007	63.338563	2.423471	152.838801	14.771093	17.451611	5.471506	-17.622661
7.471698	-0.520905	-10.294274	83.891305	0.239807	0.876294	0.650010	4.325420	1.052464	-0.713432	8.335733	0.145486	22.905424	-3.319608	0.000000	-0.231943	-2.058666	-2.715379	0.414301	0.007231	25.505904	5.676285	0.000000	0.160942	0.351219	0.228044	0.298886	0.467121	0.242297	0.264412	0.853953	0.242297	0.183941	0.853953	0.199538	0.149451	0.716205	0.185286	0.091962	0.544038	0.171033	1.149594	3.973057	1.268311	0.000000	0.000000	27.882858	-2.980979	-5.700476	-7.257687	-13.142283	14.838570	118.944132	89.843375	27.589414	7.547883	61.241815	0.845061	140.620833	21.991944	24.557407	1.809939	-15.352292
7.490566	-0.641829	-10.261631	84.318133	0.240125	0.876428	0.648964	4.100727	0.961224	-0.869724	8.139354	0.142059	22.842473	-3.584964	0.000000	-0.259460	-1.992487	-2.446296	0.408710	0.007133	25.530121	5.976088	0.000000	0.167113	0.335788	0.065498	0.310345	0.446598	0.069591	0.274549	0.816436	0.069591	0.190993	0.816436	0.057311	0.155181	0.684739	0.053217	0.095488	0.520136	0.049123	1.193669	3.798504	0.364279	0.000000	0.000000	27.836554	-2.879554	-5.669091	-5.864762	-12.428718	16.534517	119.998765	89.995585	34.311171	9.190272	58.833084	-0.937529	127.705712	29.880193	31.908159	-2.177788	-11.975721
7.509434	-0.772329	-10.211205	84.887311	0.240366	0.876661	0.647842	3.827353	0.855939	-1.144899	7.913159	0.138111	22.681118	-3.935222	0.000000	-0.288952	-1.918020	-2.080578	0.409797	0.007152	25.524415	6.310310	0.000000	0.172037	0.318535	-0.139036	0.319491	0.423652	-0.147726	0.282640	0.774487	-0.147726	0.196622	0.774487	-0.121656	0.159754	0.649557	-0.112967	0.098302	0.493411	-0.104277	1.228846	3.603336	-0.773276	0.000000	0.000000	27.772296	-2.778472	-5.502142	-4.247065	-11.569865	18.892815	120.729150	89.831124	39.372103	11.167547	56.148359	-2.792840	114.579734	38.258332	39.192074	-6.191879	-7.786381
7.528302	-0.908361	-10.148886	85.554045	0.240532	0.876982	0.646709	3.523392	0.741300	-1.502669	7.667795	0.133828	22.426795	-4.359043	0.000000	-0.315301	-1.837212	-1.663923	0.422811	0.007379	25.479539	6.677909	0.000000	0.175342	0.300684	-0.374648	0.325627	0.399910	-0.398063	0.288069	0.731084	-0.398063	0.200398	0.731084	-0.327817	0.162822	0.613156	-0.304401	0.100190	0.465760	-0.280986	1.252449	3.401403	-2.083679	0.000000	0.000000	27.692315	-2.660689	-5.159477	-2.372688	-10.532109	21.827200	121.086941	89.512995	42.825386	13.521514	53.237268	-4.631529	101.540200	46.949280	46.377953	-9.915901	-3.180001
